<?xml version="1.0" encoding="UTF-8"?>
<svg width="61px" height="26px" viewBox="0 0 61 26" version="1.1" xmlns="http://www.w3.org/2000/svg" xmlns:xlink="http://www.w3.org/1999/xlink">
    <title>编组备份</title>
    <g id="B.ai官网设计" stroke="none" stroke-width="1" fill="none" fill-rule="evenodd">
        <g id="AINFT-APP" transform="translate(-17, -19)" fill="#000000">
            <g id="编组备份" transform="translate(17, 19)">
                <g id=".AI备份-3" transform="translate(22.2908, 2.3796)" fill-rule="nonzero">
                    <path d="M2.18790914,22.8215753 C1.35762567,22.8215753 0.78540328,22.6644946 0.471241968,22.3503333 C0.157080656,22.036172 0,21.5649301 0,20.9366074 C0,20.3307249 0.173910726,19.8594829 0.521732179,19.5228815 C0.869553631,19.1862801 1.42494595,19.0179794 2.18790914,19.0179794 C3.0181926,19.0179794 3.59041499,19.1694501 3.90457631,19.4723913 C4.21873762,19.7753326 4.37581827,20.2521846 4.37581827,20.9029473 C4.37581827,21.4863897 4.20751757,21.9520217 3.87091616,22.2998431 C3.53431476,22.6476646 2.97331242,22.8215753 2.18790914,22.8215753 Z" id="路径"></path>
                    <path d="M9.72778062,20.7346466 L10.7039247,20.7346466 C10.9283256,20.0614438 11.1527266,19.405071 11.3771275,18.7655284 C11.6015284,18.1259857 11.8315394,17.4359528 12.0671604,16.6954297 C12.3027814,15.9549066 12.5776725,15.1246232 12.8918338,14.2045793 L16.9647108,1.81764759 C17.1217915,1.36884572 17.2900922,1.00980422 17.469613,0.740523092 C17.6491337,0.471241968 17.8847547,0.280501171 18.1764759,0.168300703 C18.4681971,0.0561002343 18.8384587,0 19.2872605,0 L21.1385683,0 L25.5480467,13.4640562 C25.9519684,14.6758213 26.2997898,15.7192856 26.591511,16.5944493 C26.8832323,17.469613 27.1469034,18.2381862 27.3825243,18.9001689 C27.6181453,19.5621517 27.8481563,20.1736442 28.0725572,20.7346466 L29.6209237,20.7346466 C29.7555643,21.0936881 29.8228845,21.4078494 29.8228845,21.6771305 C29.8228845,21.9239716 29.7555643,22.1203224 29.6209237,22.266183 C29.4862831,22.4120436 29.2618822,22.4849739 28.9477209,22.4849739 L23.1918368,22.4849739 C23.0571963,22.1259324 22.989876,21.8117711 22.989876,21.54249 C22.989876,21.0039277 23.2815972,20.7346466 23.8650397,20.7346466 L24.6055628,20.7346466 C24.4484821,20.0390037 24.2465213,19.2648204 23.9996802,18.4120969 C23.7528392,17.5593733 23.4835581,16.6393295 23.1918368,15.6519654 L14.9787626,15.6519654 C14.6870413,16.6617696 14.4233702,17.5930335 14.1877492,18.445757 C13.9521283,19.2984806 13.7557774,20.0614438 13.5986968,20.7346466 L15.2143835,20.7346466 C15.3490241,21.0936881 15.4163444,21.4078494 15.4163444,21.6771305 C15.4163444,22.2156928 15.1246232,22.4849739 14.5411807,22.4849739 L9.02091767,22.4849739 C8.9087172,22.1259324 8.85261697,21.8117711 8.85261697,21.54249 C8.85261697,21.2956489 8.91432723,21.0992981 9.03774774,20.9534375 C9.16116826,20.8075769 9.39117922,20.7346466 9.72778062,20.7346466 Z M15.5846451,13.5986968 L22.5859543,13.5986968 C22.024952,11.8034893 21.4358995,9.96901163 20.8187969,8.09526381 C20.2016944,6.22151598 19.6238619,4.53289893 19.0852997,3.02941265 C18.5467375,4.53289893 17.968905,6.22151598 17.3518025,8.09526381 C16.7346999,9.96901163 16.1456474,11.8034893 15.5846451,13.5986968 Z" id="形状"></path>
                    <path d="M32.7176566,20.7346466 L33.7274608,20.7346466 C33.7499009,19.7472825 33.766731,18.7767484 33.7779511,17.8230444 C33.7891711,16.8693404 33.7947811,15.9661267 33.7947811,15.1134031 L33.7947811,7.37157078 C33.7947811,6.51884722 33.7891711,5.61563345 33.7779511,4.66192947 C33.766731,3.70822549 33.7499009,2.73769143 33.7274608,1.75032731 L32.0444538,1.75032731 C31.9098133,1.39128581 31.842493,1.0771245 31.842493,0.807843374 C31.842493,0.269281125 32.1342142,0 32.7176566,0 L38.5408609,0 C38.6530614,0.359041499 38.7091616,0.673202811 38.7091616,0.942483936 C38.7091616,1.48104618 38.4174404,1.75032731 37.833998,1.75032731 L36.8578539,1.75032731 C36.8129737,2.73769143 36.7849236,3.70822549 36.7737036,4.66192947 C36.7624835,5.61563345 36.7568735,6.51884722 36.7568735,7.37157078 L36.7568735,15.1134031 C36.7568735,15.9661267 36.7624835,16.8693404 36.7737036,17.8230444 C36.7849236,18.7767484 36.8129737,19.7472825 36.8578539,20.7346466 L38.5408609,20.7346466 C38.6530614,21.0936881 38.7091616,21.4078494 38.7091616,21.6771305 C38.7091616,22.2156928 38.4174404,22.4849739 37.833998,22.4849739 L32.0444538,22.4849739 C31.9098133,22.1259324 31.842493,21.8117711 31.842493,21.54249 C31.842493,21.0039277 32.1342142,20.7346466 32.7176566,20.7346466 Z" id="路径"></path>
                </g>
                <path d="M0,0 L1.67358834,0.0270844661 C6.39151762,0.103436931 9.86987262,0.307638899 12.3272508,0.612490414 C14.0515393,0.826398051 15.7858157,1.43570295 17.1746071,2.39520057 C18.8763922,3.57094136 19.9912052,5.21218149 20.2894425,7.24829639 L20.2933078,7.27468559 L20.2960026,7.30121897 C20.5252486,9.55842703 19.9258565,10.9886963 18.5604012,12.4815607 C18.530319,12.5144499 18.4515796,12.5987445 18.3593859,12.6974375 L18.3357076,12.7227173 L18.344164,12.7319698 C19.6335121,14.1580905 20.2814397,15.8840326 20.301684,18.1050244 L20.3021737,18.2128789 C20.3021737,21.5130772 17.2536486,24.6764262 13.4374013,25.1605698 C12.5322675,25.2753984 11.3855138,25.36362 9.61052991,25.4644635 C9.89427466,25.4483429 7.85585467,25.5556225 5.69080106,25.6744306 L5.47027509,25.6865482 C4.03513057,25.7655141 2.57717375,25.8478603 1.73053328,25.9012753 L0.165724593,26 L0.462438198,24.4652349 L0.751305567,22.9711344 C1.49013587,19.2494831 3.16242275,17.1494486 6.28417762,15.614477 C7.26880413,15.130335 8.32420853,14.8770705 10.1136506,14.5980184 C10.2028884,14.5841023 10.2958492,14.5697714 10.4060096,14.5529171 C10.4750712,14.5423508 10.551035,14.5307698 10.6947174,14.5088721 C12.9535561,14.1643229 13.8591864,13.9020842 14.2759436,13.4346876 L16.0897581,15.0418265 C15.5285432,15.6712336 14.7500262,16.0812125 13.7295937,16.3766939 C13.6629121,16.3960025 13.5968002,16.4145408 13.5306051,16.4324556 L13.4311685,16.4588786 C12.8331953,16.6148313 12.2020446,16.7262319 11.0617758,16.9001614 C10.9176645,16.9221245 10.8424741,16.9335877 10.7741594,16.9440397 C10.6661282,16.9605683 10.5753674,16.97456 10.4887206,16.988072 C8.933827,17.2305478 8.05389936,17.4417033 7.35769325,17.7840286 C4.9000638,18.9924488 3.7210546,20.473032 3.13305379,23.4348444 L3.14126606,23.3939611 L3.18452103,23.3915631 C5.61179833,23.2526062 9.09477981,23.0677044 9.46746413,23.0491049 L9.49100619,23.047955 C9.49646181,23.0476994 9.49949713,23.0475731 9.50002649,23.0475803 L9.49903672,23.0476249 L9.58386979,23.0428991 C11.2053214,22.9498493 12.2672925,22.8680079 13.0762644,22.7676734 L13.1310332,22.7608034 C15.7773896,22.4250767 17.8754171,20.2480261 17.8754171,18.2128789 C17.8754171,16.1888347 17.2520096,14.8706749 15.8850153,13.722867 L15.7860441,13.6397459 L15.7735552,13.6523746 C15.0595414,12.9394968 13.3494941,12.3114143 11.5505895,12.1367898 L11.4574681,12.1281638 C7.41193833,11.7534743 5.86078795,11.2054592 4.27460761,9.61277709 C2.96295733,8.29575037 1.85381971,6.15966712 1.28122161,4.12664431 L1.2859568,4.14289526 L0.494726048,1.59399471 L0,0 Z M3.30985413,2.47957664 L3.60859592,3.44217841 L3.61763774,3.47272996 C4.087156,5.13976539 5.01055058,6.91812694 5.99678562,7.90840456 C7.10798209,9.0241558 8.14998094,9.39228979 11.6766314,9.7189335 C13.4438054,9.87475596 15.1725255,10.3824638 16.427798,11.1334439 L16.4765325,11.1629477 L16.4929555,11.1455893 C16.6109898,11.0191248 16.7197598,10.9029973 16.7588581,10.860665 L16.7671462,10.8516561 C17.7039279,9.82746438 18.033532,9.04096297 17.8815883,7.54489057 L17.8842345,7.57291396 L17.8764515,7.52243741 C17.4741638,5.06838419 15.0979259,3.42147535 12.1189399,3.02484514 L12.0275597,3.01309442 C9.96973169,2.75780934 7.12537,2.57358622 3.35706511,2.48081688 L3.30985413,2.47957664 Z" id="路径备份-3备份" fill-rule="nonzero"></path>
            </g>
        </g>
    </g>
</svg>